HIERARCHY
ROOT Hips
{
	OFFSET 0.000000 0.000000 0.000000
	CHANNELS 6 Xposition Yposition Zposition Zrotation Yrotation Xrotation 
	JOINT LHipJoint
	{
		OFFSET 0.000000 0.000000 0.000000
		CHANNELS 3 Zrotation Yrotation Xrotation
		JOINT LeftUpLeg
		{
			OFFSET 1.363060 -1.794630 0.839290
			CHANNELS 3 Zrotation Yrotation Xrotation
			JOINT LeftLeg
			{
				OFFSET 2.448110 -6.726130 0.000000
				CHANNELS 3 Zrotation Yrotation Xrotation
				JOINT LeftFoot
				{
					OFFSET 2.562200 -7.039590 0.000000
					CHANNELS 3 Zrotation Yrotation Xrotation
					JOINT LeftToeBase
					{
						OFFSET 0.157640 -0.433110 2.322550
						CHANNELS 3 Zrotation Yrotation Xrotation
						End Site
						{
							OFFSET 0.000000 0.000000 0.000000
						}
					}
				}
			}
		}
	}
	JOINT RHipJoint
	{
		OFFSET 0.000000 0.000000 0.000000
		CHANNELS 3 Zrotation Yrotation Xrotation
		JOINT RightUpLeg
		{
			OFFSET -1.305520 -1.794630 0.839290
			CHANNELS 3 Zrotation Yrotation Xrotation
			JOINT RightLeg
			{
				OFFSET -2.542530 -6.985550 0.000000
				CHANNELS 3 Zrotation Yrotation Xrotation
				JOINT RightFoot
				{
					OFFSET -2.568260 -7.056230 0.000000
					CHANNELS 3 Zrotation Yrotation Xrotation
					JOINT RightToeBase
					{
						OFFSET -0.164730 -0.452590 2.363150
						CHANNELS 3 Zrotation Yrotation Xrotation
						End Site
						{
							OFFSET 0.000000 0.000000 0.000000
						}
					}
				}
			}
		}
	}
	JOINT LowerBack
	{
		OFFSET 0.000000 0.000000 0.000000
		CHANNELS 3 Zrotation Yrotation Xrotation
		JOINT Spine
		{
			OFFSET 0.028270 2.035590 -0.193380
			CHANNELS 3 Zrotation Yrotation Xrotation
			JOINT Spine1
			{
				OFFSET 0.056720 2.048850 -0.042750
				CHANNELS 3 Zrotation Yrotation Xrotation
				JOINT Neck
				{
					OFFSET 0.000000 0.000000 0.000000
					CHANNELS 3 Zrotation Yrotation Xrotation
					JOINT Neck1
					{
						OFFSET -0.054170 1.746240 0.172020
						CHANNELS 3 Zrotation Yrotation Xrotation
						JOINT Head
						{
							OFFSET 0.104070 1.761360 -0.123970
							CHANNELS 3 Zrotation Yrotation Xrotation
							End Site
							{
								OFFSET 0.000000 0.000000 0.000000
							}
						}
					}
				}
				JOINT LeftShoulder
				{
					OFFSET 0.000000 0.000000 0.000000
					CHANNELS 3 Zrotation Yrotation Xrotation
					JOINT LeftArm
					{
						OFFSET 3.362410 1.200890 -0.311210
						CHANNELS 3 Zrotation Yrotation Xrotation
						JOINT LeftForeArm
						{
							OFFSET 4.983000 -0.000000 -0.000000
							CHANNELS 3 Zrotation Yrotation Xrotation
							JOINT LeftHand
							{
								OFFSET 3.483560 -0.000000 -0.000000
								CHANNELS 3 Zrotation Yrotation Xrotation
								JOINT LeftFingerBase
								{
									OFFSET 0.000000 0.000000 0.000000
									CHANNELS 3 Zrotation Yrotation Xrotation
									JOINT LeftHandIndex1
									{
										OFFSET 0.715260 -0.000000 -0.000000
										CHANNELS 3 Zrotation Yrotation Xrotation
										End Site
										{
											OFFSET 0.000000 0.000000 0.000000
										}
									}
								}
								JOINT LThumb
								{
									OFFSET 0.000000 0.000000 0.000000
									CHANNELS 3 Zrotation Yrotation Xrotation
									End Site
									{
										OFFSET 0.000000 0.000000 0.000000
									}
								}
							}
						}
					}
				}
				JOINT RightShoulder
				{
					OFFSET 0.000000 0.000000 0.000000
					CHANNELS 3 Zrotation Yrotation Xrotation
					JOINT RightArm
					{
						OFFSET -3.136600 1.374050 -0.404650
						CHANNELS 3 Zrotation Yrotation Xrotation
						JOINT RightForeArm
						{
							OFFSET -5.241900 -0.000000 -0.000000
							CHANNELS 3 Zrotation Yrotation Xrotation
							JOINT RightHand
							{
								OFFSET -3.444170 -0.000000 -0.000000
								CHANNELS 3 Zrotation Yrotation Xrotation
								JOINT RightFingerBase
								{
									OFFSET 0.000000 0.000000 0.000000
									CHANNELS 3 Zrotation Yrotation Xrotation
									JOINT RightHandIndex1
									{
										OFFSET -0.622530 -0.000000 -0.000000
										CHANNELS 3 Zrotation Yrotation Xrotation
										End Site
										{
											OFFSET 0.000000 0.000000 0.000000
										}
									}
								}
								JOINT RThumb
								{
									OFFSET 0.000000 0.000000 0.000000
									CHANNELS 3 Zrotation Yrotation Xrotation
									End Site
									{
										OFFSET 0.000000 0.000000 0.000000
									}
								}
							}
						}
					}
				}
			}
		}
	}
}
MOTION
Frames: 5
Frame Time: 0.008333
-2.252557 16.881650 0.835793 3.297745 64.652650 18.657443 -9.781837 0.306856 3.821305 0.458567 -4.998783 -35.259119 -1.716064 0.359637 19.972308 0.179887 -0.390855 -1.472461 0.107000 0.000000 -39.268100 10.548113 -1.847467 0.212318 13.647440 1.823256 -24.588364 -0.651633 -3.569974 59.041419 -0.785866 -2.664953 -3.744143 -0.238100 0.000000 -54.131800 -3.274859 -0.737309 -4.625197 -1.587692 -0.750398 -3.904503 -7.556574 -0.916690 0.124055 12.628364 -4.248315 -5.900132 -4.382234 -0.363167 0.462124 0.000000 0.000000 0.000000 -4.871030 8.664963 2.246236 -74.266754 18.395317 3.545910 -3.591772 -14.196390 -0.007271 -1.129357 5.594102 -0.053513 -0.053927 -0.081049 -0.000000 0.000000 0.000000 0.000000 0.000000 0.000000 0.000000 21.933113 0.203618 0.058693 72.085613 13.360822 17.123378 2.283866 41.926599 0.010912 0.401635 8.328763 0.027416 0.050397 -0.202416 -0.000000 0.000000 0.000000 0.000000 0.000000 0.000000 0.000000 
-2.060317 16.875237 0.897077 4.321592 63.851439 19.708759 -9.745360 0.405564 3.664151 -0.599910 -4.247435 -34.993018 -1.821415 0.379360 20.709205 0.186622 -0.349689 -1.877757 0.108000 0.000000 -39.145400 10.775302 -1.685545 0.242180 13.258780 1.474259 -27.016107 -0.964596 -3.723851 62.238214 -1.136823 -4.873773 -3.977981 -0.386300 -0.000000 -51.173800 -3.735491 -0.963055 -4.644972 -1.660632 -0.938573 -3.905264 -7.558918 -1.109578 0.128258 12.625654 -4.302969 -5.907263 -4.412305 -0.365435 0.458562 0.000000 0.000000 0.000000 -4.880188 8.435040 2.258341 -73.744262 17.971163 4.583584 -3.610307 -13.812351 -0.007415 -1.167831 5.678568 -0.056207 -0.054614 -0.078779 -0.000000 0.000000 0.000000 0.000000 0.000000 0.000000 0.000000 22.080767 0.002095 0.029316 72.353190 12.886838 17.150512 2.255662 41.722246 0.010330 0.123674 8.524403 0.006615 0.051910 -0.201594 -0.000000 0.000000 0.000000 0.000000 0.000000 0.000000 0.000000 
-1.869923 16.874223 0.958301 5.149812 62.994377 20.580602 -9.696762 0.499960 3.501760 -1.582745 -3.509563 -34.594431 -1.936012 0.376313 21.245202 0.189731 -0.364009 -2.481691 0.100300 0.000000 -39.077000 10.961961 -1.512878 0.298373 12.982043 1.289098 -29.394399 -1.207921 -3.868003 64.962887 -1.449999 -6.770539 -4.541876 -0.472899 -0.000000 -47.648100 -4.112466 -1.159564 -4.660176 -1.719379 -1.103966 -3.902714 -7.557512 -1.278356 0.144123 12.590528 -4.352198 -5.928909 -4.442737 -0.367551 0.450632 0.000000 0.000000 0.000000 -4.907388 8.278736 2.260119 -73.146315 17.392500 5.680932 -3.610714 -13.476870 -0.007138 -0.992336 5.688010 -0.047394 -0.054904 -0.075945 -0.000000 0.000000 0.000000 0.000000 0.000000 0.000000 0.000000 22.196127 -0.182329 0.008421 72.568443 12.372716 17.117973 2.236600 41.414929 0.009809 -0.140633 8.693381 -0.013889 0.053578 -0.199736 -0.000000 0.000000 0.000000 0.000000 0.000000 0.000000 0.000000 
-1.680621 16.878787 1.018980 5.768506 62.076860 21.243394 -9.642701 0.590841 3.331502 -2.475842 -2.777691 -34.037411 -2.054150 0.352888 21.583242 0.194691 -0.397399 -3.238024 0.087700 0.000001 -39.081601 11.104906 -1.339829 0.375438 12.822868 1.249578 -31.677858 -1.383880 -4.002059 67.175052 -1.707034 -8.256157 -5.390021 -0.471900 0.000000 -43.964500 -4.394522 -1.319015 -4.660655 -1.762563 -1.239344 -3.897466 -7.554251 -1.415801 0.163267 12.525571 -4.399449 -5.956641 -4.473516 -0.369607 0.440792 0.000000 0.000000 0.000000 -4.961051 8.148946 2.251621 -72.491623 16.721932 6.724306 -3.594930 -13.226903 -0.006476 -0.593101 5.639201 -0.027075 -0.054732 -0.072774 -0.000000 0.000000 0.000000 0.000000 0.000000 0.000000 0.000000 22.280957 -0.353686 0.001687 72.720065 11.827135 17.026841 2.228609 40.991729 0.009369 -0.386267 8.824875 -0.033697 0.055421 -0.196761 -0.000000 0.000000 0.000000 0.000000 0.000000 0.000000 0.000000 
-1.491887 16.888685 1.079352 6.215585 61.102372 21.721376 -9.584347 0.680042 3.153358 -3.286608 -2.067598 -33.296640 -2.170284 0.309606 21.711545 0.208624 -0.392413 -4.082904 0.074200 -0.000000 -39.161600 11.207961 -1.173443 0.465413 12.758038 1.322999 -33.834408 -1.493758 -4.124986 68.853283 -1.892614 -9.250691 -6.462569 -0.378399 0.000000 -40.398700 -4.598682 -1.442756 -4.639445 -1.793273 -1.344379 -3.885642 -7.547001 -1.521194 0.197484 12.440811 -4.440155 -5.999274 -4.503409 -0.371358 0.426231 0.000000 0.000000 0.000000 -5.007303 8.114738 2.233648 -71.799159 15.881809 7.729443 -3.564979 -12.993645 -0.005486 0.027536 5.534912 0.003851 -0.054140 -0.069092 -0.000000 0.000000 0.000000 0.000000 0.000000 0.000000 0.000000 22.342038 -0.503437 0.002361 72.803494 11.254006 16.856617 2.230680 40.461296 0.009018 -0.598952 8.904766 -0.051012 0.057213 -0.192588 -0.000000 0.000000 0.000000 0.000000 0.000000 0.000000 0.000000 
